<svg xmlns="http://www.w3.org/2000/svg" viewBox="0 0 195.98 79.34"><defs><style>.cls-1{fill:#009be2;}</style></defs><title>资源 1</title><g id="图层_2" data-name="图层 2"><g id="图层_1-2" data-name="图层 1"><path class="cls-1" d="M21.56,67a1.06,1.06,0,0,1,.27-.6l3.25-3.68a1.54,1.54,0,0,0,.36-.79l.13-1.07a.92.92,0,0,0-.94-1.06H15.7l-.18,1.5a.93.93,0,0,0,.93,1.07H22l-2.7,3.14a1.76,1.76,0,0,0-.44,1L18.69,68H15.64a1.24,1.24,0,0,0-1.2,1.07l-.18,1.51h4.12l-.67,5.51a.67.67,0,0,1-.68.59h-.94a1.23,1.23,0,0,0-1.19,1.07l-.18,1.48H18a2.33,2.33,0,0,0,2.3-2l.81-6.62h2.46a1.25,1.25,0,0,0,1.2-1.07L25,68H21.43Z"/><path class="cls-1" d="M10.64,75.68a10.16,10.16,0,0,0,1.52-2.61A12.86,12.86,0,0,0,13,69.73l1-8.45H9.57L9.72,60A.93.93,0,0,0,8.79,59H7.07L6.8,61.28h-1L5.5,63.83h1l-.72,5.9a12,12,0,0,0,0,3.34,7.58,7.58,0,0,0,.87,2.61,7.24,7.24,0,0,1-1.27.54c-.45.14-.92.27-1.43.38H4l-.33,2.74a15.45,15.45,0,0,0,2.56-.62,10.19,10.19,0,0,0,2.23-1.07,7.75,7.75,0,0,0,2,1.07,12.86,12.86,0,0,0,2.41.62l.33-2.74a13.17,13.17,0,0,1-1.36-.38A6,6,0,0,1,10.64,75.68Zm-.43-6a8.74,8.74,0,0,1-1.32,3.91,6,6,0,0,1-.4-1.72,10.31,10.31,0,0,1,.06-2.19l.71-5.9h1.67Z"/><path class="cls-1" d="M30,60.76l-.18,1.51h7.59l-.93,2.07H31.12a1.24,1.24,0,0,0-1.2,1.07L28.24,79.32H30a1.23,1.23,0,0,0,1.19-1.07l1.38-11.34h2.32L33.43,78.55h1.71a1.22,1.22,0,0,0,1.19-1.06l1.29-10.58h2.3L38.51,78.55h1.71a1.24,1.24,0,0,0,1.2-1.06L42.7,66.91H45l-.67,5.59-.83,6.84h1.71a1.23,1.23,0,0,0,1.19-1.07l1.69-13.93H39.35l.91-2.07h7.55A1.24,1.24,0,0,0,49,61.21l.18-1.51h-18A1.23,1.23,0,0,0,30,60.76Z"/><path class="cls-1" d="M131.71,59.88a.8.8,0,0,0-.8-.64h-2.14c.18.8.32,1.58.44,2.37.08.53.15,1.06.2,1.6a.82.82,0,0,0,.84.76h2c-.06-.79-.14-1.58-.25-2.36C131.94,61,131.84,60.46,131.71,59.88Z"/><path class="cls-1" d="M131,65.84a.79.79,0,0,0-.8-.63h-2.14c.17.79.32,1.58.44,2.37.08.54.14,1.07.19,1.61a.83.83,0,0,0,.84.77h2c0-.8-.13-1.59-.24-2.38C131.21,67,131.11,66.42,131,65.84Z"/><path class="cls-1" d="M128.35,72.13c-.27,1.09-.59,2.18-.95,3.27-.45,1.33-1,2.64-1.52,3.92h1.86a1.51,1.51,0,0,0,1.35-.92c.4-1,.76-2,1.1-3,.45-1.34.82-2.67,1.14-4h-2.06A1,1,0,0,0,128.35,72.13Z"/><path class="cls-1" d="M148.13,62.75l.18-1.51h-2.77l.87-2.28h-1.92a1.14,1.14,0,0,0-1,.72l-.6,1.56h-4.29l-.2-1.55a.84.84,0,0,0-.86-.73h-1.93l.32,2.28h-1.66a1.23,1.23,0,0,0-1.19,1.06l-.19,1.51h14.08A1.23,1.23,0,0,0,148.13,62.75Z"/><path class="cls-1" d="M134.4,76.87l5.52-9.25h-2.06a1.32,1.32,0,0,0-1.11.65l-1.2,2h-.73l3.28-5.47h-1.83a1.66,1.66,0,0,0-1.38.81L132.29,70a1.67,1.67,0,0,0-.21.59l-.26,2.16h2.26L132.16,76l-.38.59a1.51,1.51,0,0,0-.23.63l-.26,2.14h5.2a1.8,1.8,0,0,0,1.73-1.55l.22-1.8a.69.69,0,0,0-.7-.8h-1.36l-.2,1.68H134.4Z"/><path class="cls-1" d="M142.05,76.87l5.52-9.25h-2.06a1.32,1.32,0,0,0-1.11.65l-1.2,2h-.73l3.28-5.47h-1.83a1.66,1.66,0,0,0-1.38.81L139.94,70a1.67,1.67,0,0,0-.21.59l-.26,2.16h2.26L139.81,76l-.38.59a1.51,1.51,0,0,0-.23.63l-.26,2.14h5.2a1.8,1.8,0,0,0,1.73-1.55l.22-1.8a.69.69,0,0,0-.7-.8H144l-.2,1.68h-1.78Z"/><path class="cls-1" d="M114.23,59h-3a13.14,13.14,0,0,1-.9,1.81H106a1.24,1.24,0,0,0-1.2,1.07l-.18,1.5h3.85A10.33,10.33,0,0,1,104,66.42l-.36,3a12.93,12.93,0,0,0,3.08-1.31l-1.36,11.24H107a1.23,1.23,0,0,0,1.19-1.07l.34-2.76h10l0,.25c-.07.59-.41,1.1-1,1.1h-.33a1.24,1.24,0,0,0-1.19,1.06l-.17,1.42h2.52a2.9,2.9,0,0,0,1-.19,2.65,2.65,0,0,0,.83-.52,2.94,2.94,0,0,0,.6-.82,2.7,2.7,0,0,0,.31-1l1.41-11.59H110.45A17.93,17.93,0,0,0,112,63.35h11.16a1.23,1.23,0,0,0,1.19-1.06l.18-1.51h-11A15.87,15.87,0,0,0,114.23,59Zm4.65,14h-10l.16-1.3h10Zm.47-3.87h-10l.16-1.31h10Z"/><path class="cls-1" d="M161.9,59h-3a14.11,14.11,0,0,1-.91,1.81h-4.31a1.23,1.23,0,0,0-1.19,1.07l-.19,1.5h3.85a10.27,10.27,0,0,1-4.49,3.07l-.36,3a12.93,12.93,0,0,0,3.08-1.31L153,79.33h1.69a1.23,1.23,0,0,0,1.19-1.07l.34-2.76h10l0,.25c-.08.59-.41,1.1-1,1.1h-.32a1.23,1.23,0,0,0-1.19,1.06l-.18,1.42h2.52a2.9,2.9,0,0,0,1-.19,2.58,2.58,0,0,0,.84-.52,2.94,2.94,0,0,0,.6-.82,3.11,3.11,0,0,0,.31-1l1.4-11.59H158.12a16.67,16.67,0,0,0,1.51-1.84h11.16A1.22,1.22,0,0,0,172,62.29l.19-1.51h-11A15.88,15.88,0,0,0,161.9,59Zm4.64,14h-10l.16-1.3h10Zm.47-3.87H157l.16-1.31h10Z"/><path class="cls-1" d="M92.33,75.74a1.24,1.24,0,0,0,1.19-1.07l.55-4.55H77.68a1.25,1.25,0,0,0-1.21,1.08l-.55,4.54h1.71a1.23,1.23,0,0,0,1.19-1.07l.27-2.18H91l-.4,3.25Z"/><path class="cls-1" d="M87.25,65.86h6.28a1.23,1.23,0,0,0,1.19-1.06l.57-4.74H88v0A.93.93,0,0,0,87,59h-1.7l-.13,1.11H78.88a1.24,1.24,0,0,0-1.19,1.07l-.58,4.73H84.5l-.12,1H77.09a1.25,1.25,0,0,0-1.21,1.08l-.16,1.29H94.15a1.23,1.23,0,0,0,1.2-1.06l.16-1.31H87.14Zm.43-3.53h4.56l-.15,1.25H87.53Zm-2.91,1.25h-4.6l.15-1.25h4.6Z"/><path class="cls-1" d="M91.08,76.81a7.13,7.13,0,0,1-4.29-1.4,2.07,2.07,0,0,1-.51-1.64c0-.32,0-.69,0-.69H83.66s0,.37-.11.69a2.69,2.69,0,0,1-.91,1.64A8.78,8.78,0,0,1,78,76.81c-1,.07-2,.09-3.06.08l-.29,2.41q1.56,0,3-.09a22,22,0,0,0,2.71-.35,12.52,12.52,0,0,0,2.31-.66,7.38,7.38,0,0,0,1.83-1.06h0a5.16,5.16,0,0,0,1.56,1.06,10.44,10.44,0,0,0,2.15.66,20,20,0,0,0,2.63.35c.94.07,1.94.1,3,.09l.29-2.41C93.08,76.9,92.06,76.88,91.08,76.81Z"/><path class="cls-1" d="M176.18,62.28l-2,16.13h5.33a2,2,0,0,0,2-1.74l2-16.13h-5.33A2,2,0,0,0,176.18,62.28Zm2.65.83h1.57l-1.55,12.75h-1.57Z"/><path class="cls-1" d="M191,66.78l.37-3.08h3.23a1.23,1.23,0,0,0,1.2-1.06l.18-1.51h-4.3l.14-1.11a.93.93,0,0,0-.94-1.06h-1.69l-.27,2.17h-3.23a1.23,1.23,0,0,0-1.19,1.07l-.19,1.5h4.3l-.37,3.08h-3.65a1.24,1.24,0,0,0-1.19,1.06l-.18,1.51h4.71l-1.21,10h1.49a1.48,1.48,0,0,0,1.42-1.27l1.05-8.71h3.63a1.23,1.23,0,0,0,1.19-1.06l.18-1.51Z"/><path class="cls-1" d="M182.67,75.26l-.46,3.83s3.64-1.82,4.92-8.52h-2.46A10.77,10.77,0,0,1,182.67,75.26Z"/><path class="cls-1" d="M191.29,70.57c-.35,6.7,2.85,8.52,2.85,8.52l.47-3.83a9,9,0,0,1-.86-4.69Z"/><path class="cls-1" d="M69.09,69.59a8.75,8.75,0,0,1-.61-1.81,11.19,11.19,0,0,1-.26-2H65.44a14.41,14.41,0,0,0,.46,3.41,9.84,9.84,0,0,0,1.15,2.71,6.31,6.31,0,0,0,1.72,1.86,4.84,4.84,0,0,0,2.16.87l.35-2.88A2.67,2.67,0,0,1,70,71,5.87,5.87,0,0,1,69.09,69.59Z"/><path class="cls-1" d="M63.12,62.68h8.17a1.23,1.23,0,0,0,1.19-1.07l.19-1.51H54.33a1.24,1.24,0,0,0-1.19,1.07L53,62.68H60.1c-.36.89-2.82,6.39-8.22,9l-.38,3.11a19.27,19.27,0,0,0,9.32-7.51L59.36,79.32h1.71a1.23,1.23,0,0,0,1.19-1.07L63.77,65.8H61.7A23.09,23.09,0,0,0,63.12,62.68Z"/><path class="cls-1" d="M48.57,25.31A1.83,1.83,0,0,0,47,24.47a1.8,1.8,0,0,0-1,.3l-4,2.6a1.85,1.85,0,0,0-.53,2.53l2.57,4a1.82,1.82,0,0,0,1.53.83,1.77,1.77,0,0,0,1-.3l2-1.29a4.24,4.24,0,0,0,1.23-5.83Z"/><path class="cls-1" d="M46.11,11.51A25,25,0,0,0,.56,20,25.24,25.24,0,0,0,4.05,39a24.92,24.92,0,0,0,34.33,7.65l.37-.21.25-.18,0,0c.44-.3.89-.63,1.33-1a.49.49,0,0,0,.14-.11A1.59,1.59,0,0,0,41,43.29s0,0,0,0l0-.08,0,0,0-.09L39.8,41.38l-.23-.32a3.62,3.62,0,0,0-2.8-1.33,3.71,3.71,0,0,0-1.84.5l-.08.05-.06,0-.09.07a17.75,17.75,0,0,1-24.58-5.34A18.05,18.05,0,0,1,15.37,10.2a17.71,17.71,0,0,1,21.42,1.52,1.16,1.16,0,0,1,.37.73,1,1,0,0,1-.46.87L21.32,23.37a3.66,3.66,0,0,0-1.06,5.05l1.1,1.71a1.59,1.59,0,0,0,2.21.47L46.23,15.78a2.13,2.13,0,0,0,.84-1.89A4.75,4.75,0,0,0,46.11,11.51Z"/><path class="cls-1" d="M104.79,1.5H103a1.15,1.15,0,0,0-1.16,1.15V6.31A1.16,1.16,0,0,0,103,7.46h3.67a1.15,1.15,0,0,0,1.15-1.15V4.48a3,3,0,0,0-3-3"/><path class="cls-1" d="M70.09,4.79H65.32V2.65a1.16,1.16,0,0,0-1.15-1.16H60.11A1.16,1.16,0,0,0,59,2.65V9.48a1.27,1.27,0,0,0,1.16,1.28H66.3a1.18,1.18,0,0,1,1.16,1.14v6.43a1.14,1.14,0,0,0,1.15,1.15h3.32a1.14,1.14,0,0,0,1.15-1.15V7.78a3,3,0,0,0-3-3"/><path class="cls-1" d="M68.77,42.89H66.26a.94.94,0,0,1-.94-.94V14.61a1.15,1.15,0,0,0-1.15-1.15H60.5a1.14,1.14,0,0,0-1.15,1.15V43.43a5.44,5.44,0,0,0,5.43,5.44h4a1.16,1.16,0,0,0,1.16-1.16V44a1.16,1.16,0,0,0-1.16-1.15"/><path class="cls-1" d="M153.28,25.43h.13l.12,0a2.54,2.54,0,0,0,.71-.22l.11-.05a3.08,3.08,0,0,0,.69-.49,1.21,1.21,0,0,0,.16-.16L172.65,4s0,0,0,0a1.11,1.11,0,0,0,.29-.76,1.14,1.14,0,0,0-1.13-1.13h-4.68l-.13,0-.12,0a2.65,2.65,0,0,0-.71.22l-.11.05a2.79,2.79,0,0,0-.69.49s-17.33,20.24-17.6,20.6a1.12,1.12,0,0,0,.82,1.9h4.68"/><path class="cls-1" d="M150.54,5.57V4.5a3,3,0,0,0-1.8-2.74h0l-.23-.08-.05,0-.18,0-.1,0-.13,0-.17,0h-.38l-35.39,0a1.2,1.2,0,0,0-1.2,1.2V5.12a2.23,2.23,0,0,0,1.19,2,3.07,3.07,0,0,0,1.1.27v0H114l26.33,0a.36.36,0,0,1,.36.36.33.33,0,0,1-.09.23l-9.87,12.11a3.12,3.12,0,0,0-.79,2.09V41.71a1,1,0,0,1-1,1h-8.36A2.33,2.33,0,0,0,118.27,45v2.71a1.11,1.11,0,0,0,1.21,1.09h11a5.72,5.72,0,0,0,5.72-5.71V24.51a2.78,2.78,0,0,1,.7-1.84L150.22,7.13a2.58,2.58,0,0,0,.32-1.56"/><path class="cls-1" d="M196,43.22V35.75a2.33,2.33,0,0,0-2.32-2.32H191a1.2,1.2,0,0,0-1.19,1.19v7.09a1,1,0,0,1-1,1H159.14a.36.36,0,0,1-.35-.36.35.35,0,0,1,.08-.22L190.33,5h0a1.14,1.14,0,0,0-.84-1.9h-4.94l-.25,0h-.13l-.13,0a2.65,2.65,0,0,0-.71.22l-.11.05a3.33,3.33,0,0,0-.69.49l-.15.16-33,38.68a2.46,2.46,0,0,0-.73,1.55v1.55a3,3,0,0,0,3,3h38.67A5.62,5.62,0,0,0,196,43.24Z"/><path class="cls-1" d="M107.77,45.09a2.21,2.21,0,0,0-2.2-2.2H99.88A1.09,1.09,0,0,1,98.8,41.8h0V32.9h8a1,1,0,0,0,1-1v-4a1,1,0,0,0-1-1h-8V19.43h7.82a1.15,1.15,0,0,0,1.15-1.15V16.46h0V14.61a1.16,1.16,0,0,0-1.16-1.15H98.8V2.65A1.15,1.15,0,0,0,97.64,1.5H94a1.15,1.15,0,0,0-1.15,1.15V13.46H85.66v-6H88A1.16,1.16,0,0,0,89.2,6.32V2.65A1.16,1.16,0,0,0,88,1.5H76.11A1.15,1.15,0,0,0,75,2.65V6.32a1.15,1.15,0,0,0,1.15,1.15h3.57v6H76.11A1.15,1.15,0,0,0,75,14.61v3.67a1.14,1.14,0,0,0,1.15,1.15h3.57v7.49H75.93a1,1,0,0,0-1,1v4a1,1,0,0,0,1,1h3.75v9a.94.94,0,0,1-.94.94H76.11A1.15,1.15,0,0,0,75,44v3.67a1.15,1.15,0,0,0,1.15,1.15h4.11a5.44,5.44,0,0,0,5.44-5.43V32.9h2.47a1,1,0,0,0,1-1v-4a1,1,0,0,0-1-1H85.66V19.43h7.16V43.14a5.5,5.5,0,0,0,5.43,5.72h8.38a1.16,1.16,0,0,0,1.15-1.15Z"/></g></g></svg>